<svg xmlns="http://www.w3.org/2000/svg" version="1.1" xmlns:xlink="http://www.w3.org/1999/xlink" xmlns:svgjs="http://svgjs.dev/svgjs" width="100%" height="100%" viewBox="0 0 1000 600"><rect width="1000" height="600" x="0" y="0" fill="#262223"/><g><circle r="166.66666666666666" cx="295.8865305582682" cy="318.1087763180037" fill="#ddc6b6" transform="matrix(0.9673432519074128,0,0,0.9673432519074125,0,-7.72039561346277)"/><path d="M209.69383157943548 393.10880158802L166.82661576968016 393.10880158802L166.82661576968016 243.10879889845666L211.73848496509817 243.10879889845666Q221.39770958012528 243.10879889845666 228.3777332070427 245.89375782030754Q235.35775683396008 248.6787167421584 239.02403187032075 255.41197185701307Q242.69030690668137 262.1452269718677 242.69030690668137 273.8138523279771L242.69030690668137 273.8138523279771L242.69030690668137 360.3590947728368Q242.69030690668137 373.2968153338403 238.63625277993646 380.41784953907927Q234.58219865319148 387.53888374431824 227.1086380021486 390.32384266616907Q219.59982470652534 393.10880158802 209.69383157943548 393.10880158802L209.69383157943548 393.10880158802ZM183.3248534333031 252.73277086890337L183.3248534333031 383.9783666416987L207.68443083835322 383.9783666416987Q216.321328760549 383.9783666416987 221.50346751386647 379.2897649125067Q226.7208589117643 374.56591053873433 226.7208589117643 361.1346529536054L226.7208589117643 361.1346529536054L226.7208589117643 275.85850571363983Q226.7208589117643 262.3919954839305 221.50346751386647 257.5623831764169Q216.321328760549 252.73277086890337 207.68443083835322 252.73277086890337L207.68443083835322 252.73277086890337L183.3248534333031 252.73277086890337ZM337.13214173754864 393.10880158802L272.40828628795094 393.10880158802L272.40828628795094 243.10879889845666L337.13214173754864 243.10879889845666L337.13214173754864 254.53065574250328L288.9065239515739 254.53065574250328L288.9065239515739 308.3261913721799L327.47291712252155 308.3261913721799L327.47291712252155 321.0171434211205L288.9065239515739 321.0171434211205L288.9065239515739 381.6869447439733L337.13214173754864 381.6869447439733L337.13214173754864 393.10880158802ZM396.5328478555074 393.10880158802L376.2273245772021 393.10880158802L348.3072300695326 243.10879889845666L364.27667806444964 243.10879889845666L387.12039175254296 372.3097412855893L386.3800862163547 372.3097412855893L409.223799904448 243.10879889845666L424.9464793873025 243.10879889845666L396.5328478555074 393.10880158802Z " fill="#262223" transform="matrix(0.9673432519074128,0,0,0.9673432519074125,0,-7.72039561346277)"/><path d="M570.2676971933615 392.6159121625943L570.2676971933615 392.6159121625943Q564.8131519211374 392.6159121625943 559.2600305295359 391.10441166547196Q553.7069091379344 389.56005246189056 549.796723069292 384.00693107028906Q545.8865370006495 378.4209509722283 545.8865370006495 366.59181664692335L545.8865370006495 366.59181664692335L545.8865370006495 355.25556291850603Q545.8865370006495 343.42642859320097 553.1154524216693 336.1975131721813Q560.3115091362298 329.00145645762075 572.8635350036368 323.31690024018246L572.8635350036368 323.31690024018246Q580.9139180861359 319.2752793457033 585.9741588808498 316.21941964499945Q591.0672583820228 313.13070123783655 593.6630961922981 309.35194999503074Q596.2917927090325 305.57319875222504 596.2917927090325 299.1657509926848L596.2917927090325 299.1657509926848L596.2917927090325 294.20408631734847Q596.2917927090325 288.5195300999103 593.9259658439714 285.4636703992064Q591.5601389789106 282.3749519920435 587.649952910268 281.192038559513Q583.7397668416255 280.00912512698244 579.4681350019321 280.00912512698244L579.4681350019321 280.00912512698244Q568.8219141091575 280.00912512698244 565.5360434632395 285.8251161702575Q562.2173141108622 291.6082485070732 562.2173141108622 302.97736094194977L562.2173141108622 302.97736094194977L562.2173141108622 312.90069029262224L548.712385756139 312.90069029262224L548.712385756139 301.5315778577458Q548.712385756139 292.79116193960374 551.0782126212 286.0551271154717Q553.4440394862611 279.31909229133976 560.0814981910155 275.40890622269717Q566.7189568957699 271.4987201540547 579.4681350019321 271.4987201540547L579.4681350019321 271.4987201540547Q592.9730633566553 271.4987201540547 599.7090981807874 274.5874385612177Q606.4451330049193 277.6432982619215 608.7123837506027 283.32785447935976Q610.946775789827 289.01241069679793 610.946775789827 296.79992412762374L610.946775789827 296.79992412762374L610.946775789827 390.9729768396353L596.5218036542467 390.9729768396353L596.2917927090325 376.31799375884077Q593.4330852470838 384.3355181348808 586.1055937066865 388.47571514873755Q578.7781021662893 392.6159121625943 570.2676971933615 392.6159121625943ZM575.6893837591263 382.69258281192174L575.6893837591263 382.69258281192174Q586.3356046519008 382.69258281192174 591.1986932078595 375.13508032631023Q596.0289230573591 367.5447191342396 596.0289230573591 355.0255519732917L596.0289230573591 355.0255519732917L596.0289230573591 317.6323440227443Q593.6630961922981 321.41109526555 588.2414096265333 324.499813672713Q582.7868643543093 327.55567337341677 577.102308136871 330.6443917805798L577.102308136871 330.6443917805798Q569.084783760831 335.3760455107017 564.6817170953008 340.46914501187473Q560.3115091362298 345.56224451304774 560.3115091362298 354.532671376404L560.3115091362298 354.532671376404L560.3115091362298 363.7659678914338Q560.3115091362298 372.2763728643615 562.6773360012908 376.31799375884077Q565.0431628663518 380.32675594686077 568.5919031639432 381.5096693793913Q572.1406434615348 382.69258281192174 575.6893837591263 382.69258281192174ZM648.5699946855888 390.9729768396353L633.8821528983351 390.9729768396353L633.8821528983351 273.8645470191158L645.9741568753135 273.8645470191158L647.8471031434868 286.41657288652266Q649.7529081181193 279.31909229133976 656.620377768088 275.5074823420748Q663.4549887115976 271.728731099269 670.815338958454 271.728731099269L670.815338958454 271.728731099269Q683.3345061194018 271.728731099269 689.1504971626767 276.09893905833997Q694.9336294994926 280.5020057238702 696.5765648224516 287.46805149321654Q698.2523588518698 294.4340972625628 698.2523588518698 302.7144912902763L698.2523588518698 302.7144912902763L698.2523588518698 390.9729768396353L683.5645170646161 390.9729768396353L683.5645170646161 304.850307210123Q683.5645170646161 300.6115340768887 683.3345061194018 296.56991318240955Q683.1044951741875 292.56115099438944 681.5601359706061 289.373856467849Q680.0157767670246 286.1537032348492 676.4670364694331 284.280756966676Q672.9182961718416 282.3749519920435 666.083685228332 282.3749519920435L666.083685228332 282.3749519920435Q660.1691180656795 282.3749519920435 656.4889429422512 284.64220273772696Q652.8087678188231 286.87659477695126 651.0343976700274 289.8338783582775Q649.2600275212316 292.79116193960374 648.5699946855888 295.386999749879L648.5699946855888 295.386999749879L648.5699946855888 390.9729768396353ZM751.7134742609566 393.10879275948207L751.7134742609566 393.10879275948207Q739.8843399356516 393.10879275948207 732.5568483952543 390.38152012337Q725.2293568548571 387.6542474872581 721.9106275024798 380.32675594686077Q718.5918981501026 372.99926440646357 718.5918981501026 359.0343141613117L718.5918981501026 359.0343141613117L718.5918981501026 300.6115340768887Q718.5918981501026 284.0507460214617 726.0508245163365 277.8733092071358Q733.5097508825705 271.728731099269 750.7605717736403 271.728731099269L750.7605717736403 271.728731099269Q767.5513707742816 271.728731099269 775.0102971405156 277.8733092071358Q782.4692235067496 284.0507460214617 782.4692235067496 300.6115340768887L782.4692235067496 300.6115340768887L782.4692235067496 330.87440272579397L733.2468812308971 330.87440272579397L733.2468812308971 363.9959788366481Q733.2468812308971 375.36509127152453 736.7956215284886 379.7352992305955Q740.3443618260801 384.1055071896666 751.2534523705281 384.1055071896666L751.2534523705281 384.1055071896666Q761.1767817212007 384.1055071896666 764.4955110735779 379.8667340564323Q767.8142404259551 375.59510221673884 767.8142404259551 363.9959788366481L767.8142404259551 363.9959788366481L767.8142404259551 348.8481151589658L782.4692235067496 348.8481151589658L782.4692235067496 358.80430321609754Q782.4692235067496 372.5063838095758 779.1504941543724 379.9653101758098Q775.8317648019951 387.4242365420438 769.0957299778631 390.25008529753336Q762.3596951537311 393.10879275948207 751.7134742609566 393.10879275948207ZM733.2468812308971 300.11865348000106L733.2468812308971 323.31690024018246L767.8142404259551 323.31690024018246L767.8142404259551 300.11865348000106Q767.8142404259551 290.19532412932847 764.4955110735779 285.6936813444207Q761.1767817212007 281.192038559513 750.7605717736403 281.192038559513L750.7605717736403 281.192038559513Q740.3443618260801 281.192038559513 736.7956215284886 285.6936813444207Q733.2468812308971 290.19532412932847 733.2468812308971 300.11865348000106L733.2468812308971 300.11865348000106ZM817.9566264826645 390.9729768396353L803.5316543470843 390.9729768396353L803.5316543470843 273.8645470191158L817.9566264826645 273.8645470191158L817.9566264826645 390.9729768396353ZM810.8591458874815 259.43957488353544L810.8591458874815 259.43957488353544Q807.3104055898901 259.43957488353544 804.8131438989924 256.9423131926377Q802.3487409145538 254.4779102081992 802.3487409145538 251.15918085582197L802.3487409145538 251.15918085582197Q802.3487409145538 247.61044055823047 804.8131438989924 245.343189812547Q807.3104055898901 243.10879777332272 810.8591458874815 243.10879777332272L810.8591458874815 243.10879777332272Q814.1778752398588 243.10879777332272 816.773713050134 245.343189812547Q819.3695508604094 247.61044055823047 819.3695508604094 251.15918085582197L819.3695508604094 251.15918085582197Q819.3695508604094 254.4779102081992 816.773713050134 256.9423131926377Q814.1778752398588 259.43957488353544 810.8591458874815 259.43957488353544ZM872.3706443790676 392.6159121625943L872.3706443790676 392.6159121625943Q861.4944125410789 392.6159121625943 854.2654971200592 389.6586285812681Q847.0694404054985 386.70134499994185 843.6192762272846 379.14384251433023Q840.2019707555298 371.5863400287187 840.2019707555298 358.3114226192098L840.2019707555298 358.3114226192098L840.2019707555298 303.66739377759257Q840.2019707555298 286.64658383173696 847.6608971217638 279.31909229133976Q855.0869647815387 271.9587420444833 872.3706443790676 271.9587420444833L872.3706443790676 271.9587420444833Q889.6543239765966 271.9587420444833 897.0803916363715 279.0562226396662Q904.5393180026055 286.1537032348492 904.5393180026055 303.66739377759257L904.5393180026055 303.66739377759257L904.5393180026055 358.3114226192098Q904.5393180026055 371.5863400287187 901.2205886502281 379.01240768849357Q897.9347180043101 386.47133405472755 890.8372374091272 389.56005246189056Q883.7397568139442 392.6159121625943 872.3706443790676 392.6159121625943ZM872.3706443790676 383.4154743540238L872.3706443790676 383.4154743540238Q881.8339518393117 383.4154743540238 885.8427140273317 378.68382062390174Q889.8843349218108 373.9521668937798 889.8843349218108 361.4001410263728L889.8843349218108 361.4001410263728L889.8843349218108 302.97736094194977Q889.8843349218108 291.378237561859 886.1055836790051 286.285138060686Q882.2939737297402 281.192038559513 872.3706443790676 281.192038559513L872.3706443790676 281.192038559513Q863.1373478640379 281.192038559513 858.9971508501811 286.0551271154717Q854.8569538363244 290.88535696497127 854.8569538363244 302.97736094194977L854.8569538363244 302.97736094194977L854.8569538363244 361.4001410263728Q854.8569538363244 373.68929724210636 858.9971508501811 378.5523857980651Q863.1373478640379 383.4154743540238 872.3706443790676 383.4154743540238Z " fill="#ddc6b6" transform="matrix(0.9673432519074128,0,0,0.9673432519074125,0,-7.72039561346277)"/></g></svg>